<svg width="24" height="24" viewBox="0 0 24 24" fill="none" xmlns="http://www.w3.org/2000/svg">
<path d="M14.665 2.33C14.8429 2.24109 15.0487 2.22643 15.2374 2.28925C15.426 2.35207 15.582 2.48722 15.671 2.665L17.872 7.067C19.225 7.171 20.074 7.437 20.622 8.114C21.058 8.653 21.198 9.323 21.147 10.25H2.85301C2.80201 9.323 2.94301 8.653 3.37801 8.114C3.92601 7.436 4.77501 7.171 6.12801 7.067L8.32901 2.665C8.41879 2.48863 8.57463 2.35489 8.76258 2.29293C8.95053 2.23096 9.15536 2.2458 9.33242 2.3342C9.50948 2.4226 9.64443 2.57739 9.70785 2.76486C9.77127 2.95232 9.75803 3.15726 9.67101 3.335L7.83601 7.005C8.31901 7 8.84601 7 9.42201 7H14.578C15.154 7 15.681 7 16.164 7.005L14.329 3.335C14.2402 3.15704 14.2257 2.95107 14.2887 2.76242C14.3517 2.57376 14.4871 2.41885 14.665 2.33Z" fill="#1D1B20"/>
<path fill-rule="evenodd" clip-rule="evenodd" d="M3.55501 14.257C3.37055 13.4243 3.20052 12.5885 3.04501 11.75H20.955C20.7994 12.5885 20.6294 13.4243 20.445 14.257L20.016 16.257C19.529 18.53 19.286 19.666 18.461 20.333C17.636 21 16.474 21 14.15 21H9.85001C7.52601 21 6.36401 21 5.54001 20.333C4.71401 19.666 4.47001 18.53 3.98401 16.257L3.55501 14.257ZM10 13.25C9.8011 13.25 9.61034 13.329 9.46968 13.4697C9.32903 13.6103 9.25001 13.8011 9.25001 14C9.25001 14.1989 9.32903 14.3897 9.46968 14.5303C9.61034 14.671 9.8011 14.75 10 14.75H14C14.1989 14.75 14.3897 14.671 14.5303 14.5303C14.671 14.3897 14.75 14.1989 14.75 14C14.75 13.8011 14.671 13.6103 14.5303 13.4697C14.3897 13.329 14.1989 13.25 14 13.25H10Z" fill="#1D1B20"/>
</svg>
