<svg width="16" height="16" viewBox="0 0 16 16" fill="none" xmlns="http://www.w3.org/2000/svg">
<path d="M12.6667 2.66667H12V2C12 1.63334 11.7 1.33334 11.3333 1.33334C10.9667 1.33334 10.6667 1.63334 10.6667 2V2.66667H5.33333V2C5.33333 1.63334 5.03333 1.33334 4.66667 1.33334C4.3 1.33334 4 1.63334 4 2V2.66667H3.33333C2.59333 2.66667 2.00667 3.26667 2.00667 4L2 13.3333C2 13.687 2.14048 14.0261 2.39052 14.2761C2.64057 14.5262 2.97971 14.6667 3.33333 14.6667H12.6667C13.4 14.6667 14 14.0667 14 13.3333V4C14 3.26667 13.4 2.66667 12.6667 2.66667ZM12.6667 12.6667C12.6667 13.0333 12.3667 13.3333 12 13.3333H4C3.63333 13.3333 3.33333 13.0333 3.33333 12.6667V6H12.6667V12.6667ZM4.66667 7.33334H6V8.66667H4.66667V7.33334ZM7.33333 7.33334H8.66667V8.66667H7.33333V7.33334ZM10 7.33334H11.3333V8.66667H10V7.33334Z" fill="#1D1B20"/>
</svg>
