<svg width="16" height="16" viewBox="0 0 16 16" fill="none" xmlns="http://www.w3.org/2000/svg">
<path d="M2 11.64V13.6667C2 13.8533 2.14667 14 2.33333 14H4.36C4.44667 14 4.53333 13.9667 4.59333 13.9L11.8733 6.62666L9.37333 4.12666L2.1 11.4C2.03333 11.4667 2 11.5467 2 11.64ZM13.8067 4.69333C13.8685 4.63165 13.9175 4.5584 13.951 4.47775C13.9844 4.3971 14.0016 4.31064 14.0016 4.22333C14.0016 4.13602 13.9844 4.04956 13.951 3.96891C13.9175 3.88827 13.8685 3.81501 13.8067 3.75333L12.2467 2.19333C12.185 2.13153 12.1117 2.0825 12.0311 2.04904C11.9504 2.01559 11.864 1.99837 11.7767 1.99837C11.6894 1.99837 11.6029 2.01559 11.5223 2.04904C11.4416 2.0825 11.3683 2.13153 11.3067 2.19333L10.0867 3.41333L12.5867 5.91333L13.8067 4.69333Z" fill="#1D1B20"/>
</svg>
