<svg width="16" height="16" viewBox="0 0 16 16" fill="none" xmlns="http://www.w3.org/2000/svg">
<path d="M1.33331 4.66667C1.33331 4.31305 1.47379 3.97391 1.72384 3.72386C1.97389 3.47381 2.31302 3.33334 2.66665 3.33334H13.3333C13.6869 3.33334 14.0261 3.47381 14.2761 3.72386C14.5262 3.97391 14.6666 4.31305 14.6666 4.66667V11.3333C14.6666 11.687 14.5262 12.0261 14.2761 12.2761C14.0261 12.5262 13.6869 12.6667 13.3333 12.6667H2.66665C2.31302 12.6667 1.97389 12.5262 1.72384 12.2761C1.47379 12.0261 1.33331 11.687 1.33331 11.3333V4.66667Z" stroke="#1D1B20" stroke-width="1.33333" stroke-linecap="round" stroke-linejoin="round"/>
<path d="M8 10C9.10457 10 10 9.10457 10 8C10 6.89543 9.10457 6 8 6C6.89543 6 6 6.89543 6 8C6 9.10457 6.89543 10 8 10Z" stroke="#1D1B20" stroke-width="1.33333" stroke-linecap="round" stroke-linejoin="round"/>
<path d="M1.33331 6C2.04056 6 2.71883 5.71905 3.21893 5.21895C3.71903 4.71886 3.99998 4.04058 3.99998 3.33334M12 12.6667C12 11.9594 12.2809 11.2811 12.781 10.7811C13.2811 10.281 13.9594 10 14.6666 10" stroke="#1D1B20" stroke-width="1.33333" stroke-linecap="round" stroke-linejoin="round"/>
</svg>
